<svg xmlns="http://www.w3.org/2000/svg" xmlns:xlink="http://www.w3.org/1999/xlink" width="500" zoomAndPan="magnify" viewBox="0 0 375 374.999991" height="500" preserveAspectRatio="xMidYMid meet" version="1.0"><defs><g/><clipPath id="91cba003c0"><path d="M 143.714844 114.6875 L 231.464844 114.6875 L 231.464844 202.4375 L 143.714844 202.4375 Z M 143.714844 114.6875 " clip-rule="nonzero"/></clipPath></defs><g clip-path="url(#91cba003c0)"><path fill="#ff914d" d="M 148.96875 114.6875 L 187.441406 114.6875 C 199.492188 114.6875 210.4375 119.675781 218.40625 127.558594 C 226.285156 135.527344 231.277344 146.472656 231.277344 158.503906 C 231.277344 170.53125 226.285156 181.496094 218.40625 189.464844 C 210.4375 197.34375 199.492188 202.25 187.460938 202.25 L 170.035156 202.25 L 170.035156 181.199219 L 180.542969 181.199219 L 180.542969 191.707031 L 187.460938 191.707031 C 196.566406 191.707031 204.886719 188.027344 210.925781 181.953125 C 216.96875 175.875 220.683594 167.589844 220.683594 158.484375 C 220.683594 149.289062 217.003906 141.058594 210.925781 135.019531 C 204.851562 128.976562 196.566406 125.261719 187.460938 125.261719 L 154.222656 125.261719 L 154.222656 165.367188 L 170.019531 165.367188 L 170.019531 141.078125 L 187.441406 141.078125 C 192.207031 141.078125 196.550781 143.054688 199.753906 146.191406 C 202.871094 149.394531 204.867188 153.722656 204.867188 158.503906 C 204.867188 163.28125 202.890625 167.609375 199.753906 170.8125 C 196.550781 173.929688 192.222656 175.925781 187.441406 175.925781 L 143.714844 175.925781 L 143.714844 114.6875 Z M 143.714844 202.25 L 154.222656 202.25 L 154.222656 191.742188 L 143.714844 191.742188 Z M 180.542969 151.601562 L 180.542969 165.417969 L 187.460938 165.417969 C 189.300781 165.417969 191.015625 164.632812 192.277344 163.351562 C 193.554688 162.074219 194.34375 160.375 194.34375 158.535156 C 194.34375 156.699219 193.554688 154.980469 192.277344 153.722656 C 191 152.441406 189.300781 151.65625 187.460938 151.65625 L 180.542969 151.65625 Z M 180.542969 151.601562 " fill-opacity="1" fill-rule="nonzero"/></g><g fill="#ff914d" fill-opacity="1"><g transform="translate(62.16263, 248.127596)"><g><path d="M 2.046875 -25.203125 L 14.46875 -25.203125 C 17.28125 -25.203125 19.757812 -24.691406 21.90625 -23.671875 C 24.050781 -22.648438 25.71875 -21.191406 26.90625 -19.296875 C 28.09375 -17.398438 28.6875 -15.164062 28.6875 -12.59375 C 28.6875 -10.03125 28.09375 -7.800781 26.90625 -5.90625 C 25.71875 -4.007812 24.050781 -2.550781 21.90625 -1.53125 C 19.757812 -0.507812 17.28125 0 14.46875 0 L 2.046875 0 Z M 14.109375 -6.625 C 15.929688 -6.625 17.390625 -7.144531 18.484375 -8.1875 C 19.578125 -9.226562 20.125 -10.695312 20.125 -12.59375 C 20.125 -14.488281 19.578125 -15.957031 18.484375 -17 C 17.390625 -18.050781 15.929688 -18.578125 14.109375 -18.578125 L 10.546875 -18.578125 L 10.546875 -6.625 Z M 14.109375 -6.625 "/></g></g></g><g fill="#ff914d" fill-opacity="1"><g transform="translate(94.768937, 248.127596)"><g><path d="M 22.75 -9.859375 C 22.75 -9.742188 22.710938 -9.109375 22.640625 -7.953125 L 8.96875 -7.953125 C 9.25 -7.210938 9.722656 -6.644531 10.390625 -6.25 C 11.066406 -5.851562 11.910156 -5.65625 12.921875 -5.65625 C 13.785156 -5.65625 14.507812 -5.757812 15.09375 -5.96875 C 15.6875 -6.1875 16.332031 -6.5625 17.03125 -7.09375 L 21.28125 -2.8125 C 19.351562 -0.695312 16.484375 0.359375 12.671875 0.359375 C 10.296875 0.359375 8.207031 -0.078125 6.40625 -0.953125 C 4.601562 -1.828125 3.207031 -3.046875 2.21875 -4.609375 C 1.238281 -6.171875 0.75 -7.921875 0.75 -9.859375 C 0.75 -11.828125 1.234375 -13.582031 2.203125 -15.125 C 3.179688 -16.675781 4.515625 -17.882812 6.203125 -18.75 C 7.898438 -19.613281 9.804688 -20.046875 11.921875 -20.046875 C 13.910156 -20.046875 15.726562 -19.648438 17.375 -18.859375 C 19.019531 -18.066406 20.328125 -16.898438 21.296875 -15.359375 C 22.265625 -13.828125 22.75 -11.992188 22.75 -9.859375 Z M 11.984375 -14.515625 C 11.148438 -14.515625 10.457031 -14.285156 9.90625 -13.828125 C 9.351562 -13.367188 8.988281 -12.71875 8.8125 -11.875 L 15.15625 -11.875 C 14.988281 -12.695312 14.628906 -13.34375 14.078125 -13.8125 C 13.523438 -14.28125 12.828125 -14.515625 11.984375 -14.515625 Z M 11.984375 -14.515625 "/></g></g></g><g fill="#ff914d" fill-opacity="1"><g transform="translate(121.149269, 248.127596)"><g><path d="M 9.546875 -17.5625 C 10.984375 -19.21875 13.101562 -20.046875 15.90625 -20.046875 L 15.90625 -12.859375 C 15.257812 -12.953125 14.660156 -13 14.109375 -13 C 11.328125 -13 9.9375 -11.582031 9.9375 -8.75 L 9.9375 0 L 1.796875 0 L 1.796875 -19.6875 L 9.546875 -19.6875 Z M 9.546875 -17.5625 "/></g></g></g><g fill="#ff914d" fill-opacity="1"><g transform="translate(140.439915, 248.127596)"><g><path d="M 27.859375 -20.046875 C 30.234375 -20.046875 32.132812 -19.3125 33.5625 -17.84375 C 35 -16.382812 35.71875 -14.179688 35.71875 -11.234375 L 35.71875 0 L 27.578125 0 L 27.578125 -9.828125 C 27.578125 -12.085938 26.84375 -13.21875 25.375 -13.21875 C 24.613281 -13.21875 24 -12.925781 23.53125 -12.34375 C 23.0625 -11.769531 22.828125 -10.859375 22.828125 -9.609375 L 22.828125 0 L 14.6875 0 L 14.6875 -9.828125 C 14.6875 -12.085938 13.953125 -13.21875 12.484375 -13.21875 C 11.722656 -13.21875 11.109375 -12.925781 10.640625 -12.34375 C 10.171875 -11.769531 9.9375 -10.859375 9.9375 -9.609375 L 9.9375 0 L 1.796875 0 L 1.796875 -19.6875 L 9.546875 -19.6875 L 9.546875 -17.859375 C 11.003906 -19.316406 12.863281 -20.046875 15.125 -20.046875 C 16.4375 -20.046875 17.617188 -19.800781 18.671875 -19.3125 C 19.734375 -18.820312 20.601562 -18.070312 21.28125 -17.0625 C 22.070312 -18.019531 23.03125 -18.753906 24.15625 -19.265625 C 25.28125 -19.785156 26.515625 -20.046875 27.859375 -20.046875 Z M 27.859375 -20.046875 "/></g></g></g><g fill="#ff914d" fill-opacity="1"><g transform="translate(180.747709, 248.127596)"><g><path d="M 10.625 -20.046875 C 14.070312 -20.046875 16.707031 -19.269531 18.53125 -17.71875 C 20.363281 -16.175781 21.28125 -13.796875 21.28125 -10.578125 L 21.28125 0 L 13.71875 0 L 13.71875 -2.59375 C 12.78125 -0.625 10.921875 0.359375 8.140625 0.359375 C 6.578125 0.359375 5.25 0.0859375 4.15625 -0.453125 C 3.0625 -0.992188 2.234375 -1.722656 1.671875 -2.640625 C 1.109375 -3.566406 0.828125 -4.609375 0.828125 -5.765625 C 0.828125 -7.703125 1.570312 -9.175781 3.0625 -10.1875 C 4.550781 -11.195312 6.804688 -11.703125 9.828125 -11.703125 L 13.109375 -11.703125 C 12.835938 -13.234375 11.597656 -14 9.390625 -14 C 8.503906 -14 7.601562 -13.859375 6.6875 -13.578125 C 5.78125 -13.304688 5.003906 -12.929688 4.359375 -12.453125 L 1.765625 -17.8125 C 2.890625 -18.507812 4.25 -19.054688 5.84375 -19.453125 C 7.445312 -19.847656 9.039062 -20.046875 10.625 -20.046875 Z M 10.578125 -4.53125 C 11.160156 -4.53125 11.675781 -4.6875 12.125 -5 C 12.582031 -5.3125 12.921875 -5.78125 13.140625 -6.40625 L 13.140625 -7.78125 L 11.125 -7.78125 C 9.46875 -7.78125 8.640625 -7.226562 8.640625 -6.125 C 8.640625 -5.664062 8.8125 -5.285156 9.15625 -4.984375 C 9.507812 -4.679688 9.984375 -4.53125 10.578125 -4.53125 Z M 10.578125 -4.53125 "/></g></g></g><g fill="#ff914d" fill-opacity="1"><g transform="translate(206.624207, 248.127596)"><g><path d="M 11.453125 0.578125 C 9.359375 0.578125 7.320312 0.34375 5.34375 -0.125 C 3.363281 -0.59375 1.738281 -1.222656 0.46875 -2.015625 L 3.203125 -8.203125 C 4.398438 -7.503906 5.742188 -6.945312 7.234375 -6.53125 C 8.722656 -6.113281 10.148438 -5.90625 11.515625 -5.90625 C 12.691406 -5.90625 13.53125 -6.019531 14.03125 -6.25 C 14.539062 -6.476562 14.796875 -6.816406 14.796875 -7.265625 C 14.796875 -7.796875 14.460938 -8.191406 13.796875 -8.453125 C 13.140625 -8.722656 12.054688 -9.015625 10.546875 -9.328125 C 8.597656 -9.734375 6.976562 -10.171875 5.6875 -10.640625 C 4.394531 -11.109375 3.265625 -11.875 2.296875 -12.9375 C 1.335938 -14.007812 0.859375 -15.457031 0.859375 -17.28125 C 0.859375 -18.863281 1.300781 -20.300781 2.1875 -21.59375 C 3.082031 -22.894531 4.410156 -23.914062 6.171875 -24.65625 C 7.929688 -25.40625 10.070312 -25.78125 12.59375 -25.78125 C 14.320312 -25.78125 16.019531 -25.59375 17.6875 -25.21875 C 19.363281 -24.84375 20.835938 -24.296875 22.109375 -23.578125 L 19.546875 -17.421875 C 17.078125 -18.671875 14.738281 -19.296875 12.53125 -19.296875 C 10.34375 -19.296875 9.25 -18.769531 9.25 -17.71875 C 9.25 -17.207031 9.570312 -16.828125 10.21875 -16.578125 C 10.875 -16.328125 11.941406 -16.054688 13.421875 -15.765625 C 15.347656 -15.410156 16.96875 -15 18.28125 -14.53125 C 19.601562 -14.0625 20.75 -13.296875 21.71875 -12.234375 C 22.695312 -11.179688 23.1875 -9.742188 23.1875 -7.921875 C 23.1875 -6.335938 22.738281 -4.898438 21.84375 -3.609375 C 20.957031 -2.328125 19.632812 -1.304688 17.875 -0.546875 C 16.113281 0.203125 13.972656 0.578125 11.453125 0.578125 Z M 11.453125 0.578125 "/></g></g></g><g fill="#ff914d" fill-opacity="1"><g transform="translate(233.148497, 248.127596)"><g><path d="M 11.234375 -6.046875 L 9.9375 -4.640625 L 9.9375 0 L 1.796875 0 L 1.796875 -26.71875 L 9.9375 -26.71875 L 9.9375 -13.96875 L 15.59375 -19.6875 L 25.203125 -19.6875 L 17.0625 -11.15625 L 25.84375 0 L 16.015625 0 Z M 11.234375 -6.046875 "/></g></g></g><g fill="#ff914d" fill-opacity="1"><g transform="translate(261.688115, 248.127596)"><g><path d="M 10.625 -20.046875 C 14.070312 -20.046875 16.707031 -19.269531 18.53125 -17.71875 C 20.363281 -16.175781 21.28125 -13.796875 21.28125 -10.578125 L 21.28125 0 L 13.71875 0 L 13.71875 -2.59375 C 12.78125 -0.625 10.921875 0.359375 8.140625 0.359375 C 6.578125 0.359375 5.25 0.0859375 4.15625 -0.453125 C 3.0625 -0.992188 2.234375 -1.722656 1.671875 -2.640625 C 1.109375 -3.566406 0.828125 -4.609375 0.828125 -5.765625 C 0.828125 -7.703125 1.570312 -9.175781 3.0625 -10.1875 C 4.550781 -11.195312 6.804688 -11.703125 9.828125 -11.703125 L 13.109375 -11.703125 C 12.835938 -13.234375 11.597656 -14 9.390625 -14 C 8.503906 -14 7.601562 -13.859375 6.6875 -13.578125 C 5.78125 -13.304688 5.003906 -12.929688 4.359375 -12.453125 L 1.765625 -17.8125 C 2.890625 -18.507812 4.25 -19.054688 5.84375 -19.453125 C 7.445312 -19.847656 9.039062 -20.046875 10.625 -20.046875 Z M 10.578125 -4.53125 C 11.160156 -4.53125 11.675781 -4.6875 12.125 -5 C 12.582031 -5.3125 12.921875 -5.78125 13.140625 -6.40625 L 13.140625 -7.78125 L 11.125 -7.78125 C 9.46875 -7.78125 8.640625 -7.226562 8.640625 -6.125 C 8.640625 -5.664062 8.8125 -5.285156 9.15625 -4.984375 C 9.507812 -4.679688 9.984375 -4.53125 10.578125 -4.53125 Z M 10.578125 -4.53125 "/></g></g></g><g fill="#ff914d" fill-opacity="1"><g transform="translate(287.564601, 248.127596)"><g><path d="M 15.484375 -20.046875 C 17.898438 -20.046875 19.847656 -19.3125 21.328125 -17.84375 C 22.804688 -16.382812 23.546875 -14.179688 23.546875 -11.234375 L 23.546875 0 L 15.40625 0 L 15.40625 -9.828125 C 15.40625 -12.085938 14.601562 -13.21875 13 -13.21875 C 12.082031 -13.21875 11.34375 -12.894531 10.78125 -12.25 C 10.21875 -11.613281 9.9375 -10.613281 9.9375 -9.25 L 9.9375 0 L 1.796875 0 L 1.796875 -19.6875 L 9.546875 -19.6875 L 9.546875 -17.75 C 10.304688 -18.519531 11.191406 -19.09375 12.203125 -19.46875 C 13.210938 -19.851562 14.304688 -20.046875 15.484375 -20.046875 Z M 15.484375 -20.046875 "/></g></g></g></svg>